<svg width="101" height="74.202" viewBox="0 0 101 74.202" xmlns="http://www.w3.org/2000/svg">
<g id="svgGroup" style="fill:#d41929">
<path d="M 87.6 52.201 L 87.4 42.701 A 2.705 2.705 0 0 0 87.197 41.614 Q 86.702 40.476 85.002 40.243 A 6.18 6.18 0 0 0 84.6 40.201 L 77.5 40.201 Q 76.957 40.201 76.782 39.97 A 0.434 0.434 0 0 1 76.7 39.701 Q 77.3 36.801 78.8 35.051 A 13.314 13.314 0 0 1 79.476 34.316 Q 80.535 33.254 81.3 33.101 Q 83.411 32.8 87.568 32.725 A 164.943 164.943 0 0 1 90.5 32.701 Q 96.489 32.701 98.275 32.745 A 33.72 33.72 0 0 1 98.5 32.751 Q 100.1 32.801 100.5 33.101 Q 100.9 33.601 100.9 34.251 A 10.856 10.856 0 0 1 100.895 34.523 Q 100.859 35.772 100.589 41.713 A 3653.625 3653.625 0 0 1 100.55 42.551 A 364.171 364.171 0 0 0 100.299 49.371 Q 100.2 53.037 100.2 56.251 A 147.141 147.141 0 0 0 100.214 58.362 Q 100.261 61.616 100.464 63.112 A 6.596 6.596 0 0 0 100.6 63.851 A 41.045 41.045 0 0 1 100.736 64.392 Q 100.935 65.209 100.984 65.595 A 1.702 1.702 0 0 1 101 65.801 Q 101 67.114 99.115 68.595 A 13.761 13.761 0 0 1 98.2 69.251 A 15.509 15.509 0 0 1 96.172 70.363 Q 93.991 71.373 90.816 72.226 A 56.472 56.472 0 0 1 89.75 72.501 A 47.071 47.071 0 0 1 82.635 73.67 A 59.661 59.661 0 0 1 77.3 73.901 Q 68.2 73.901 61.5 67.601 Q 56.3 62.601 54.35 56.701 A 30.783 30.783 0 0 1 53.322 52.545 Q 52.4 47.457 52.4 40.101 Q 52.4 1.555 79.833 0.435 A 40.854 40.854 0 0 1 81.5 0.401 Q 86.4 0.401 90.3 1.451 Q 94.2 2.501 97.15 5.551 A 10.365 10.365 0 0 1 99.997 11.663 A 14.158 14.158 0 0 1 100.1 13.401 A 13.566 13.566 0 0 1 99.538 17.207 A 16.309 16.309 0 0 1 99.1 18.501 Q 97.681 22.68 93.526 23.564 A 11.661 11.661 0 0 1 91.1 23.801 Q 87.7 23.801 85.95 22.051 A 5.767 5.767 0 0 1 84.429 19.265 Q 84.207 18.351 84.2 17.271 A 10.898 10.898 0 0 1 84.2 17.201 Q 84.2 16.278 84.97 15.887 A 2.326 2.326 0 0 1 85.5 15.701 Q 87.4 14.601 87.4 11.951 A 5.607 5.607 0 0 0 87.119 10.132 A 4.614 4.614 0 0 0 85.4 7.851 A 7.91 7.91 0 0 0 83.416 6.787 A 6.55 6.55 0 0 0 81.2 6.401 A 10.749 10.749 0 0 0 73.308 9.639 A 12.958 12.958 0 0 0 73.1 9.851 A 18.185 18.185 0 0 0 69.816 14.706 A 24.906 24.906 0 0 0 68.3 18.901 Q 65.8 28.901 65.8 39.301 Q 65.8 54.254 72.222 60.387 A 14.277 14.277 0 0 0 74.1 61.901 A 12.313 12.313 0 0 0 77.263 63.547 A 10.305 10.305 0 0 0 80.6 64.101 A 26.284 26.284 0 0 0 82.735 64.022 Q 86.035 63.751 86.964 62.556 A 1.685 1.685 0 0 0 87.3 61.801 Q 87.6 58.701 87.6 52.201 Z M 33.5 16.701 L 33.9 13.601 Q 33.9 9.001 30.3 7.701 A 30.864 30.864 0 0 0 28.982 7.307 Q 27.578 6.925 26.593 6.831 A 6.306 6.306 0 0 0 26 6.801 L 25.9 6.801 Q 23.032 6.801 20.895 7.669 A 9.754 9.754 0 0 0 20.7 7.751 A 10.597 10.597 0 0 0 19.33 8.457 Q 18.157 9.182 17.5 10.101 A 13.351 13.351 0 0 0 15.742 13.363 A 11.365 11.365 0 0 0 15.1 16.201 Q 15.1 20.001 18.5 22.751 A 30.269 30.269 0 0 0 22.751 25.605 A 40.173 40.173 0 0 0 26.75 27.551 Q 31.6 29.601 36.45 32.001 Q 41.3 34.401 44.7 38.901 A 16.772 16.772 0 0 1 47.981 47.402 A 21.62 21.62 0 0 1 48.1 49.701 A 30.944 30.944 0 0 1 47.305 56.945 A 19.54 19.54 0 0 1 40.35 68.101 Q 32.6 74.201 22.75 74.201 A 35.899 35.899 0 0 1 15.574 73.522 Q 11.03 72.595 7.453 70.403 A 22.071 22.071 0 0 1 6.45 69.751 Q 0.062 65.344 0.001 57.945 A 17.337 17.337 0 0 1 0 57.801 L 0 57.701 A 20.189 20.189 0 0 1 0.22 54.645 Q 0.503 52.798 1.15 51.251 Q 1.97 49.291 3.019 48.067 A 6.874 6.874 0 0 1 3.9 47.201 Q 5.963 45.513 7.791 44.802 A 7.318 7.318 0 0 1 9.9 44.301 L 11.1 44.201 Q 13.9 44.201 16.2 45.551 A 5.369 5.369 0 0 1 17.459 46.547 A 3.938 3.938 0 0 1 18.5 49.301 A 2.043 2.043 0 0 1 17.886 50.762 Q 17.607 51.051 17.2 51.301 A 6.023 6.023 0 0 0 15.814 52.493 A 8.267 8.267 0 0 0 14.95 53.701 A 11.772 11.772 0 0 0 14.461 54.607 Q 13.971 55.628 13.9 56.401 L 13.7 57.501 A 10.084 10.084 0 0 0 14.192 60.757 Q 15.36 64.194 19.3 65.601 A 18.279 18.279 0 0 0 20.417 65.955 Q 21.503 66.258 22.285 66.296 A 4.487 4.487 0 0 0 22.5 66.301 A 14.877 14.877 0 0 0 26.433 65.808 A 11.024 11.024 0 0 0 31.35 63.001 Q 34.7 59.701 34.7 54.601 Q 34.7 48.501 29.5 44.701 Q 25.6 41.901 21.05 40.001 A 315.986 315.986 0 0 1 19.079 39.171 Q 16.125 37.914 14.9 37.301 A 41.352 41.352 0 0 1 13.037 36.306 A 52.909 52.909 0 0 1 11.5 35.401 A 19.652 19.652 0 0 1 10.094 34.45 Q 8.875 33.551 7.5 32.301 A 13.795 13.795 0 0 1 2.817 23.113 A 19.403 19.403 0 0 1 2.7 20.951 A 21.71 21.71 0 0 1 3.474 15.029 A 17.278 17.278 0 0 1 6.6 8.901 A 22.488 22.488 0 0 1 19.719 0.827 A 35.369 35.369 0 0 1 27.6 0.001 A 31.965 31.965 0 0 1 33.233 0.471 Q 36.532 1.062 39.233 2.395 A 19.184 19.184 0 0 1 40.1 2.851 A 12.222 12.222 0 0 1 42.679 4.733 A 8.013 8.013 0 0 1 45.2 10.701 A 10.408 10.408 0 0 1 44.815 13.597 A 8.239 8.239 0 0 1 43.15 16.701 A 6.544 6.544 0 0 1 38.393 19.086 A 8.191 8.191 0 0 1 37.9 19.101 Q 36.4 19.101 34.95 18.501 Q 33.5 17.901 33.5 16.701 Z" vector-effect="non-scaling-stroke"/></g></svg>