<svg width="71.8" height="79" viewBox="0 0 71.8 79" xmlns="http://www.w3.org/2000/svg">
<g id="svgGroup" style="fill:#d41929">
 <path d="M 69.8 34.5 L 70.1 55.5 A 32.303 32.303 0 0 1 69.209 63.281 A 23.888 23.888 0 0 1 64.9 72.3 A 13.06 13.06 0 0 1 62.651 74.529 Q 61.475 75.454 59.978 76.275 A 25.97 25.97 0 0 1 58.55 77 A 20.485 20.485 0 0 1 53.152 78.644 A 27.818 27.818 0 0 1 48.6 79 A 5.284 5.284 0 0 1 48.07 78.631 Q 47.533 78.202 47.371 77.773 A 1.046 1.046 0 0 1 47.3 77.4 A 1.117 1.117 0 0 1 47.639 76.605 Q 47.8 76.437 48.038 76.291 A 3.286 3.286 0 0 1 48.4 76.1 A 12.544 12.544 0 0 0 53.224 72.041 Q 55.862 68.48 57.378 62.441 A 45.976 45.976 0 0 0 57.4 62.35 A 67.61 67.61 0 0 0 58.705 55.357 Q 60.1 45.285 60.1 29.4 L 59.9 15.4 L 59.6 8.6 Q 59.6 7.7 56.8 7.3 A 9.094 9.094 0 0 0 53.535 7.869 A 8.233 8.233 0 0 0 50.75 9.65 A 11.437 11.437 0 0 0 48.029 13.777 A 14.86 14.86 0 0 0 47.4 15.8 Q 46.175 20.47 45.888 24.174 A 28.188 28.188 0 0 0 45.8 26.35 A 23.281 23.281 0 0 0 46.119 30.291 A 17.465 17.465 0 0 0 47.25 34.2 A 6.339 6.339 0 0 0 48.366 35.993 Q 49.64 37.396 51.688 37.574 A 7.064 7.064 0 0 0 52.3 37.6 A 4.376 4.376 0 0 0 53.771 37.356 A 4.113 4.113 0 0 0 54.15 37.2 Q 54.895 36.849 55.218 36.806 A 0.625 0.625 0 0 1 55.3 36.8 A 0.799 0.799 0 0 1 56.046 37.292 Q 56.244 37.681 56.288 38.377 A 6.733 6.733 0 0 1 56.3 38.8 A 22.252 22.252 0 0 1 56.271 39.977 Q 56.239 40.584 56.171 41.102 A 9.159 9.159 0 0 1 56 42.05 A 7.677 7.677 0 0 1 55.627 43.181 Q 55.409 43.71 55.1 44.277 A 14.642 14.642 0 0 1 54.8 44.8 Q 53.198 47.445 49.155 47.97 A 16.751 16.751 0 0 1 47 48.1 A 12.506 12.506 0 0 1 43.772 47.71 A 8.116 8.116 0 0 1 38.7 43.9 Q 36.1 39.6 35.7 36.2 Q 35.186 31.83 35.113 30.03 A 13.149 13.149 0 0 1 35.1 29.5 Q 35.1 28.275 35.13 27.431 A 27.052 27.052 0 0 1 35.15 26.95 A 10.91 10.91 0 0 1 35.191 26.444 Q 35.274 25.627 35.499 24.13 A 139.185 139.185 0 0 1 35.65 23.15 A 44.11 44.11 0 0 1 36.494 19.044 A 39.055 39.055 0 0 1 36.85 17.75 A 26.658 26.658 0 0 1 37.669 15.404 Q 38.143 14.218 38.767 12.924 A 48.59 48.59 0 0 1 39.2 12.05 A 23.232 23.232 0 0 1 41.435 8.464 A 19.605 19.605 0 0 1 43 6.65 A 15.333 15.333 0 0 1 45.733 4.457 Q 47.113 3.577 48.8 2.85 Q 52.4 1.3 55.7 1.3 A 15.681 15.681 0 0 1 60.496 2.075 A 19.225 19.225 0 0 1 62.4 2.8 A 1.275 1.275 0 0 0 62.625 2.782 Q 62.861 2.739 63 2.6 Q 65.6 0 70.6 0 Q 71.8 0 71.8 1.1 Q 71.8 1.2 71.6 2 A 22.093 22.093 0 0 0 71.494 2.447 Q 71.325 3.188 71.1 4.35 A 27.816 27.816 0 0 0 70.889 5.604 Q 70.787 6.305 70.7 7.105 A 55.544 55.544 0 0 0 70.6 8.1 Q 69.9 13.8 69.85 20.7 Q 69.8 27.6 69.8 34.5 Z M 32.4 33.3 Q 32.4 37.6 30.75 40.8 A 18.074 18.074 0 0 1 29.506 42.881 Q 28.781 43.917 27.983 44.681 A 8.904 8.904 0 0 1 27 45.5 Q 24.9 47 22 47.9 A 28.704 28.704 0 0 1 18.809 48.72 Q 17.213 49.029 15.762 49.087 A 16.607 16.607 0 0 1 15.1 49.1 A 27.495 27.495 0 0 1 10.535 48.742 Q 6.988 48.144 4.3 46.55 A 8.336 8.336 0 0 1 0.178 40.549 A 12.438 12.438 0 0 1 0 38.4 A 9.92 9.92 0 0 1 0.275 36.005 A 7.217 7.217 0 0 1 1.8 33 A 9.797 9.797 0 0 1 4.435 30.895 A 8.471 8.471 0 0 1 8.5 29.9 Q 9.7 29.9 9.7 31 Q 9.7 31.088 9.357 32.205 A 129.338 129.338 0 0 1 9.25 32.55 Q 8.8 34 8.8 36.2 A 5.136 5.136 0 0 0 10.093 39.612 A 6.994 6.994 0 0 0 10.55 40.1 Q 12.3 41.8 14.8 41.8 A 11.974 11.974 0 0 0 16.384 41.702 Q 17.186 41.595 17.85 41.37 A 5.481 5.481 0 0 0 18.8 40.95 Q 20.3 40.1 20.9 38.8 A 9.473 9.473 0 0 0 21.499 37.317 Q 21.77 36.426 21.797 35.589 A 5.754 5.754 0 0 0 21.8 35.4 Q 21.8 32.5 18.9 30.4 Q 16 28.3 12.5 27.1 A 16.826 16.826 0 0 1 7.021 23.936 A 19.954 19.954 0 0 1 6.1 23.1 A 9.287 9.287 0 0 1 3.203 16.361 A 11.979 11.979 0 0 1 3.2 16.1 A 18.053 18.053 0 0 1 3.679 11.81 A 11.519 11.519 0 0 1 7.75 5.3 A 15.636 15.636 0 0 1 13.307 2.545 Q 15.568 1.911 18.259 1.753 A 31.346 31.346 0 0 1 20.1 1.7 A 27.243 27.243 0 0 1 24.714 2.109 A 33.259 33.259 0 0 1 27.25 2.65 A 10.383 10.383 0 0 1 28.665 3.109 Q 31 4.075 31 5.85 A 11.805 11.805 0 0 1 30.677 8.653 A 10.315 10.315 0 0 1 30.25 10 A 6.223 6.223 0 0 1 29.906 10.739 Q 29.26 11.9 28.4 11.9 A 1.227 1.227 0 0 1 28.102 11.867 A 0.709 0.709 0 0 1 27.6 11.45 A 2.967 2.967 0 0 0 27.427 11.123 Q 27.228 10.794 26.9 10.4 A 2.41 2.41 0 0 0 26.569 10.084 Q 25.933 9.566 24.5 8.85 A 12.158 12.158 0 0 0 23.366 8.349 Q 22.791 8.132 22.277 8.02 A 4.832 4.832 0 0 0 21.25 7.9 Q 19.9 7.9 19.45 7.95 Q 19 8 17.9 8.25 A 7.835 7.835 0 0 0 16.43 8.735 A 6.889 6.889 0 0 0 15.9 9 A 5.012 5.012 0 0 0 14.594 10.032 Q 13.647 11.104 13.602 12.647 A 5.317 5.317 0 0 0 13.6 12.8 A 5.795 5.795 0 0 0 13.659 13.654 Q 13.803 14.617 14.3 15.15 Q 14.836 15.724 15.196 16.093 A 23.739 23.739 0 0 0 15.4 16.3 A 2.93 2.93 0 0 0 15.673 16.537 Q 15.982 16.777 16.468 17.062 A 14.338 14.338 0 0 0 16.8 17.25 Q 17.624 17.703 18.04 17.919 A 13.097 13.097 0 0 0 18.2 18 A 18.031 18.031 0 0 0 18.423 18.109 Q 18.793 18.288 19.521 18.627 A 300.073 300.073 0 0 0 20 18.85 A 287.998 287.998 0 0 1 20.565 19.113 Q 21.271 19.443 21.62 19.612 A 16.275 16.275 0 0 1 21.8 19.7 Q 32.4 24.7 32.4 33.3 Z" vector-effect="non-scaling-stroke"/></g></svg>