<svg width="120" height="120" viewBox="-20 -20 130 130" 
xmlns="http://www.w3.org/2000/svg">
<g id="svgGroup"
style="fill:#d41929">
<rect style="fill:white" x="-20" y="-20" width="110%" height="110%" />
<path d="M 74.219 2.735 L 74.219 1.319 A 515.804 515.804 0 0 0 75.112 1.034 Q 75.656 0.859 76.123 0.708 A 18.422 18.422 0 0 1 76.893 0.477 Q 77.284 0.369 77.637 0.293 Q 78.32 0.147 79.004 0.073 A 12.392 12.392 0 0 1 79.724 0.019 A 16.44 16.44 0 0 1 80.518 0 A 5.943 5.943 0 0 1 81.938 0.16 A 3.925 3.925 0 0 1 84.033 1.416 Q 85.254 2.832 85.254 5.322 A 6.571 6.571 0 0 1 84.767 7.777 A 7.79 7.79 0 0 1 84.57 8.228 Q 83.887 9.668 82.861 10.987 A 21.782 21.782 0 0 1 80.591 13.477 Q 79.346 14.649 78.223 15.528 Q 80.273 17.871 81.396 20.996 A 18.584 18.584 0 0 1 82.305 24.79 A 24.8 24.8 0 0 1 82.52 28.125 A 24.843 24.843 0 0 1 82.113 32.722 A 18.996 18.996 0 0 1 80.786 37.012 A 19.7 19.7 0 0 1 77.513 42.111 A 18.163 18.163 0 0 1 76.123 43.506 A 19.718 19.718 0 0 1 69.336 47.486 A 24.477 24.477 0 0 1 61.23 48.828 A 26.973 26.973 0 0 1 56.348 48.389 A 24.469 24.469 0 0 1 52.653 47.417 A 22.01 22.01 0 0 1 51.855 47.119 A 5.481 5.481 0 0 0 50.602 48.449 A 6.255 6.255 0 0 0 50.513 48.584 A 3.553 3.553 0 0 0 49.951 50.537 A 3.273 3.273 0 0 0 50.162 51.739 Q 50.525 52.667 51.514 53.223 A 8.632 8.632 0 0 0 52.891 53.835 Q 54.087 54.254 55.664 54.492 A 41.641 41.641 0 0 0 58.377 54.806 Q 59.862 54.931 61.523 54.981 Q 64.795 55.078 68.237 55.298 A 56.043 56.043 0 0 1 74.951 56.128 A 21.706 21.706 0 0 1 78.595 57.128 A 18.046 18.046 0 0 1 80.811 58.13 A 11.204 11.204 0 0 1 84.961 61.914 A 9.004 9.004 0 0 1 86.133 64.661 Q 86.426 65.824 86.499 67.185 A 17.321 17.321 0 0 1 86.523 68.115 A 11.363 11.363 0 0 1 86.132 71.146 A 9.797 9.797 0 0 1 85.352 73.12 A 13.174 13.174 0 0 1 82.202 77.027 A 18.89 18.89 0 0 1 78.879 79.279 A 22.23 22.23 0 0 1 77.612 79.907 A 33.514 33.514 0 0 1 72.095 81.861 Q 69.189 82.617 66.187 82.959 A 52.99 52.99 0 0 1 62.009 83.274 A 45.609 45.609 0 0 1 60.449 83.301 A 83.154 83.154 0 0 1 55.789 83.177 Q 53.51 83.049 51.489 82.788 Q 47.51 82.276 44.727 81.201 A 14.095 14.095 0 0 1 42.746 80.265 Q 41.701 79.661 40.92 78.924 A 7.912 7.912 0 0 1 40.43 78.418 A 5.975 5.975 0 0 1 38.916 74.317 Q 38.916 72.608 39.697 71.167 A 10.08 10.08 0 0 1 41.457 68.833 A 11.523 11.523 0 0 1 41.772 68.53 A 16.9 16.9 0 0 1 44.478 66.502 A 18.709 18.709 0 0 1 44.678 66.382 A 53.17 53.17 0 0 1 47.949 64.6 Q 45.508 63.574 43.872 61.499 Q 42.236 59.424 42.236 56.006 A 9.016 9.016 0 0 1 42.55 53.598 A 8.101 8.101 0 0 1 42.871 52.661 Q 43.506 51.123 44.507 49.829 Q 45.508 48.535 46.704 47.486 A 23.2 23.2 0 0 1 47.991 46.432 A 17.926 17.926 0 0 1 49.023 45.703 Q 47.021 44.531 45.337 42.847 Q 43.652 41.162 42.456 39.038 A 18.64 18.64 0 0 1 40.915 35.436 A 21.625 21.625 0 0 1 40.601 34.326 A 21.341 21.341 0 0 1 40.012 30.651 A 25.925 25.925 0 0 1 39.941 28.711 A 24.188 24.188 0 0 1 40.321 24.324 A 17.987 17.987 0 0 1 41.675 19.995 A 18.588 18.588 0 0 1 45.113 14.904 A 17.386 17.386 0 0 1 46.338 13.745 A 19.486 19.486 0 0 1 53.125 9.986 A 26.223 26.223 0 0 1 61.23 8.74 A 28.789 28.789 0 0 1 68.071 9.536 A 26.435 26.435 0 0 1 69.287 9.863 A 19.644 19.644 0 0 1 75.374 12.832 A 18.694 18.694 0 0 1 76.025 13.33 A 15.087 15.087 0 0 0 77.539 10.352 A 9.006 9.006 0 0 0 78.104 7.813 A 8.351 8.351 0 0 0 78.125 7.227 A 6.215 6.215 0 0 0 77.983 5.86 Q 77.756 4.851 77.165 4.118 A 3.909 3.909 0 0 0 77.026 3.955 A 3.577 3.577 0 0 0 74.43 2.739 A 4.631 4.631 0 0 0 74.219 2.735 Z M 0 51.123 L 1.709 49.903 A 12.923 12.923 0 0 0 2.318 50.555 Q 2.763 51.002 3.32 51.489 A 15.538 15.538 0 0 0 5.052 52.797 A 17.546 17.546 0 0 0 5.493 53.076 A 12.716 12.716 0 0 0 8.057 54.273 Q 9.424 54.737 10.84 54.737 A 12.03 12.03 0 0 0 13.345 54.49 Q 15.033 54.131 16.326 53.249 A 7.482 7.482 0 0 0 16.602 53.052 A 5.449 5.449 0 0 0 18.724 49.514 A 8.31 8.31 0 0 0 18.848 48.047 A 6.3 6.3 0 0 0 18.461 45.921 Q 18.18 45.132 17.693 44.322 A 10.94 10.94 0 0 0 17.627 44.214 A 26.372 26.372 0 0 0 16.151 42.078 A 34.936 34.936 0 0 0 14.551 40.137 Q 12.695 38.037 10.547 35.791 A 59.17 59.17 0 0 1 6.543 31.153 A 28.043 28.043 0 0 1 3.947 27.168 A 25.354 25.354 0 0 1 3.467 26.221 A 12.032 12.032 0 0 1 2.246 20.947 A 12.865 12.865 0 0 1 2.52 18.235 A 9.924 9.924 0 0 1 3.491 15.576 A 11.349 11.349 0 0 1 6.812 11.768 A 14.628 14.628 0 0 1 10.892 9.698 A 16.833 16.833 0 0 1 11.548 9.497 Q 14.209 8.74 17.041 8.74 A 31.684 31.684 0 0 1 20.352 8.906 A 24.373 24.373 0 0 1 22.998 9.326 A 17.04 17.04 0 0 1 25.422 10.037 A 12.716 12.716 0 0 1 27.612 11.109 Q 29.541 12.305 30.591 14.112 A 7.729 7.729 0 0 1 31.558 17.011 A 9.886 9.886 0 0 1 31.641 18.311 A 4.681 4.681 0 0 1 30.42 21.533 A 3.984 3.984 0 0 1 28.161 22.792 A 5.905 5.905 0 0 1 27.002 22.901 A 7.811 7.811 0 0 1 25.794 22.813 Q 24.561 22.62 23.804 21.997 A 2.949 2.949 0 0 1 22.718 19.865 A 4.155 4.155 0 0 1 22.705 19.531 A 3.307 3.307 0 0 1 22.766 18.879 Q 22.881 18.305 23.218 17.92 A 4.578 4.578 0 0 1 24.208 17.063 A 4.282 4.282 0 0 1 24.365 16.968 A 39.091 39.091 0 0 1 24.934 16.646 Q 25.202 16.497 25.444 16.369 A 23.076 23.076 0 0 1 25.513 16.333 Q 25.831 16.167 25.951 15.935 A 0.66 0.66 0 0 0 26.025 15.625 A 2.206 2.206 0 0 0 25.201 13.89 A 3.741 3.741 0 0 0 24.561 13.452 A 5.983 5.983 0 0 0 23.063 12.888 Q 22.37 12.722 21.561 12.67 A 11.916 11.916 0 0 0 20.801 12.647 A 7.695 7.695 0 0 0 19.088 12.833 A 6.978 6.978 0 0 0 18.677 12.94 Q 17.676 13.233 16.895 13.892 A 4.459 4.459 0 0 0 15.745 15.398 A 5.21 5.21 0 0 0 15.674 15.552 Q 15.247 16.524 15.235 17.84 A 8.407 8.407 0 0 0 15.234 17.92 Q 15.234 19.824 16.626 21.704 Q 18.018 23.584 20.093 25.611 A 140.187 140.187 0 0 0 22.82 28.201 A 166.127 166.127 0 0 0 24.585 29.81 Q 27.002 31.983 29.077 34.4 Q 31.152 36.817 32.544 39.551 A 12.737 12.737 0 0 1 33.936 45.41 A 17.648 17.648 0 0 1 33.636 48.731 A 13.718 13.718 0 0 1 32.739 51.66 Q 31.543 54.395 29.321 56.299 A 14.443 14.443 0 0 1 25.648 58.57 A 17.75 17.75 0 0 1 23.95 59.204 A 21.097 21.097 0 0 1 19.793 60.059 A 26.823 26.823 0 0 1 16.943 60.205 A 20.656 20.656 0 0 1 13.543 59.937 A 16.423 16.423 0 0 1 10.84 59.253 A 23.945 23.945 0 0 1 7.808 57.968 A 19.683 19.683 0 0 1 5.981 56.909 Q 3.857 55.518 2.344 53.955 A 27.463 27.463 0 0 1 1.305 52.825 Q 0.82 52.264 0.436 51.748 A 12.906 12.906 0 0 1 0 51.123 Z M 67.822 28.321 Q 67.822 25.488 67.529 22.803 Q 67.236 20.117 66.504 18.018 Q 65.771 15.918 64.502 14.624 A 4.268 4.268 0 0 0 61.727 13.351 A 5.79 5.79 0 0 0 61.23 13.33 A 4.864 4.864 0 0 0 59.632 13.583 A 4.137 4.137 0 0 0 57.959 14.673 A 8.128 8.128 0 0 0 56.731 16.39 Q 56.289 17.204 55.957 18.189 A 20.198 20.198 0 0 0 55.303 20.663 A 26.929 26.929 0 0 0 54.932 23.12 A 52.909 52.909 0 0 0 54.639 28.711 A 54.075 54.075 0 0 0 54.932 34.375 Q 55.225 37.158 55.957 39.356 Q 56.657 41.456 57.848 42.775 A 7.053 7.053 0 0 0 57.959 42.896 A 4.233 4.233 0 0 0 60.907 44.229 A 5.712 5.712 0 0 0 61.23 44.238 A 4.603 4.603 0 0 0 62.894 43.948 A 4.132 4.132 0 0 0 64.502 42.822 A 8.595 8.595 0 0 0 65.697 41.08 Q 66.131 40.257 66.46 39.269 A 14.545 14.545 0 0 0 66.504 39.136 A 22.283 22.283 0 0 0 67.189 36.404 A 29.103 29.103 0 0 0 67.529 34.033 Q 67.822 31.201 67.822 28.321 Z M 75.244 72.022 A 3.236 3.236 0 0 0 74.889 70.5 A 3.361 3.361 0 0 0 74.023 69.458 A 7.531 7.531 0 0 0 72.713 68.606 Q 72.059 68.266 71.275 67.994 A 13.645 13.645 0 0 0 70.825 67.847 Q 68.848 67.237 66.333 66.919 A 85.995 85.995 0 0 0 61.23 66.431 A 843.135 843.135 0 0 0 56.507 66.132 A 773.384 773.384 0 0 0 56.201 66.113 Q 54.332 66.001 52.835 65.832 A 41.078 41.078 0 0 1 51.953 65.723 Q 50.928 66.455 49.976 67.31 A 12.531 12.531 0 0 0 48.59 68.763 A 11.263 11.263 0 0 0 48.315 69.116 A 9.49 9.49 0 0 0 47.168 71.118 A 5.51 5.51 0 0 0 46.735 72.974 A 5.235 5.235 0 0 0 46.729 73.242 Q 46.729 75.098 47.803 76.343 A 6.612 6.612 0 0 0 49.393 77.67 A 8.881 8.881 0 0 0 50.708 78.321 A 14.454 14.454 0 0 0 52.686 78.943 Q 53.681 79.183 54.806 79.327 A 23.154 23.154 0 0 0 54.956 79.346 A 40.852 40.852 0 0 0 58.692 79.619 A 47.37 47.37 0 0 0 60.059 79.639 Q 63.623 79.639 66.455 79.029 A 23.057 23.057 0 0 0 68.688 78.435 Q 69.8 78.076 70.732 77.627 A 12.856 12.856 0 0 0 71.24 77.368 A 11.413 11.413 0 0 0 72.674 76.463 Q 73.405 75.916 73.937 75.301 A 6.496 6.496 0 0 0 74.219 74.951 Q 75.244 73.584 75.244 72.022 Z" vector-effect="non-scaling-stroke"/></g></svg>