<svg width="89.902" height="66.502" viewBox="0 0 89.902 66.502" 
xmlns="http://www.w3.org/2000/svg">
<g id="svgGroup" style="fill:#d41929"><path d="M 83.071 1.467 A 20.246 20.246 0 0 0 75.602 0.002 Q 63.602 0.002 55.402 9.502 Q 51.502 14.102 49.202 20.852 Q 46.902 27.602 46.902 34.602 A 50.329 50.329 0 0 0 47.615 43.245 A 37.304 37.304 0 0 0 52.902 57.152 A 33.07 33.07 0 0 0 53.016 57.329 Q 54.795 60.062 56.818 61.981 A 15.376 15.376 0 0 0 67.702 66.502 A 12.081 12.081 0 0 0 69.065 66.422 Q 71.36 66.161 74.152 65.052 A 24.612 24.612 0 0 0 77.299 63.55 A 17.894 17.894 0 0 0 80.202 61.502 A 24.326 24.326 0 0 0 80.23 61.899 Q 80.39 63.876 80.819 64.868 A 2.351 2.351 0 0 0 81.202 65.502 A 1.842 1.842 0 0 0 81.325 65.628 Q 82.108 66.354 83.884 66.354 A 9.137 9.137 0 0 0 84.102 66.352 A 6.43 6.43 0 0 0 84.452 66.334 Q 85.061 66.286 85.559 66.122 A 2.929 2.929 0 0 0 87.102 65.002 A 3.433 3.433 0 0 0 87.441 64.214 Q 87.949 62.587 88.066 58.87 A 77.076 77.076 0 0 0 88.102 56.452 Q 88.102 49.502 87.902 44.302 A 44.429 44.429 0 0 0 87.798 42.982 Q 87.67 41.626 87.479 40.694 A 8.545 8.545 0 0 0 87.252 39.802 A 37.813 37.813 0 0 0 87.206 39.661 Q 86.762 38.297 86.002 36.302 A 10.624 10.624 0 0 0 85.559 35.292 Q 85.257 34.694 84.911 34.231 A 4.568 4.568 0 0 0 84.002 33.302 Q 82.802 32.402 80.452 31.002 A 4.43 4.43 0 0 0 80.368 30.953 Q 78.552 29.924 74.245 29.679 A 51.971 51.971 0 0 0 71.302 29.602 A 3.945 3.945 0 0 0 69.735 30.23 A 4.269 4.269 0 0 0 68.602 31.402 A 6.816 6.816 0 0 0 68.533 31.507 A 5.641 5.641 0 0 0 67.602 34.602 A 2.451 2.451 0 0 0 67.936 35.86 Q 68.429 36.705 69.652 37.302 Q 71.702 38.302 74.002 38.302 A 6.699 6.699 0 0 1 75.224 38.409 A 4.721 4.721 0 0 1 77.702 39.652 Q 79.102 41.002 79.452 42.652 A 13.202 13.202 0 0 1 79.62 43.643 Q 79.802 45.002 79.802 46.802 Q 79.802 51.302 76.752 54.852 A 9.74 9.74 0 0 1 72.023 57.908 A 12.943 12.943 0 0 1 68.352 58.402 Q 63.002 58.402 59.102 51.702 Q 55.202 45.002 55.202 36.102 A 40.428 40.428 0 0 1 56.083 27.426 A 28.061 28.061 0 0 1 60.952 16.502 A 24.374 24.374 0 0 1 62.625 14.488 A 16.706 16.706 0 0 1 75.302 8.802 Q 77.702 8.802 81.202 10.602 A 44.822 44.822 0 0 0 81.705 10.857 Q 84.804 12.402 86.102 12.402 Q 89.902 12.402 89.902 7.802 A 3.733 3.733 0 0 0 89.706 6.608 Q 89.159 4.978 87.089 3.54 A 16.241 16.241 0 0 0 85.152 2.402 A 24.616 24.616 0 0 0 83.071 1.467 Z M 28.161 0.565 A 32.083 32.083 0 0 0 23.202 0.202 Q 13.002 0.202 6.502 4.552 Q 2.947 6.931 1.336 10.282 A 14.174 14.174 0 0 0 0.002 16.502 Q 0.002 19.381 0.648 21.708 A 11.914 11.914 0 0 0 4.502 27.852 A 18.72 18.72 0 0 0 8.148 30.192 Q 12.085 32.156 17.902 33.202 A 40.449 40.449 0 0 1 21.492 33.948 A 31.282 31.282 0 0 1 25.602 35.302 Q 30.141 37.117 31.736 40.699 A 10.711 10.711 0 0 1 32.602 45.102 A 16.138 16.138 0 0 1 32.6 45.308 A 12.501 12.501 0 0 1 29.152 54.052 Q 25.702 57.702 22.002 57.702 A 19.418 19.418 0 0 1 17.929 57.25 A 26.187 26.187 0 0 1 14.102 56.102 A 14.845 14.845 0 0 1 13.887 56.017 Q 12.935 55.634 11.308 54.845 A 117.483 117.483 0 0 1 10.002 54.202 A 273.061 273.061 0 0 0 9.568 53.986 Q 7.103 52.758 5.952 52.252 A 2.605 2.605 0 0 0 4.892 52.028 Q 4.09 52.028 3.202 52.502 A 7.908 7.908 0 0 0 2.307 53.055 A 6.184 6.184 0 0 0 0.852 54.502 A 6.406 6.406 0 0 0 0.503 55.047 Q 0.002 55.933 0.002 56.702 A 3.273 3.273 0 0 0 0.474 58.346 Q 1.218 59.639 3.13 60.931 A 21.453 21.453 0 0 0 5.102 62.102 A 38.395 38.395 0 0 0 9.249 64.083 A 30.488 30.488 0 0 0 20.752 66.402 Q 24.983 66.402 28.183 65.414 A 14.341 14.341 0 0 0 32.902 63.002 Q 40.602 56.902 40.602 44.102 A 28.412 28.412 0 0 0 40.525 41.981 Q 40.014 35.16 36.102 31.552 A 20.649 20.649 0 0 0 30.402 27.85 A 27.032 27.032 0 0 0 24.502 26.052 Q 19.62 25.124 16.299 24.03 A 28.34 28.34 0 0 1 13.602 23.002 A 11.994 11.994 0 0 1 12.049 22.166 Q 10.495 21.169 9.622 19.824 A 7.22 7.22 0 0 1 8.502 15.802 Q 8.502 13.186 10.719 11.151 A 11.994 11.994 0 0 1 12.702 9.702 A 23.861 23.861 0 0 1 12.715 9.694 Q 14.48 8.645 16.201 8.037 A 13.916 13.916 0 0 1 20.852 7.202 A 14.836 14.836 0 0 1 22.427 7.288 Q 24.196 7.476 26.121 8.081 A 27.928 27.928 0 0 1 29.602 9.452 Q 33.352 11.21 35.057 11.594 A 3.742 3.742 0 0 0 35.852 11.702 Q 37.302 11.702 38.052 10.602 Q 38.802 9.502 38.802 8.002 A 4.761 4.761 0 0 0 37.791 5.064 Q 37.185 4.263 36.215 3.557 A 12.828 12.828 0 0 0 34.252 2.402 Q 31.55 1.095 28.161 0.565 Z" vector-effect="non-scaling-stroke"/></g></svg>