<svg width="78.5" height="67.5" viewBox="0 0 78.5 67.5" xmlns="http://www.w3.org/2000/svg">
<g id="svgGroup"
style="fill:#d41929">
 <path d="M 77.2 23.3 L 78.5 24.3 Q 77 28.8 73.7 32.5 A 44.297 44.297 0 0 1 67.811 38.032 A 40.211 40.211 0 0 1 66.65 38.9 A 60.893 60.893 0 0 1 63.71 40.896 Q 61.641 42.209 59.8 43.1 A 129.454 129.454 0 0 1 56.183 51.026 A 105.975 105.975 0 0 1 53.9 55.35 A 52.075 52.075 0 0 1 51.54 59.196 Q 50.199 61.172 48.814 62.752 A 27.278 27.278 0 0 1 47.45 64.2 Q 44.1 67.5 40.3 67.5 Q 38.1 67.5 36.3 66.15 A 4.195 4.195 0 0 1 34.832 64.041 Q 34.594 63.316 34.526 62.424 A 9.642 9.642 0 0 1 34.5 61.7 Q 34.5 58.7 36.35 56.15 A 20.434 20.434 0 0 1 39.23 52.975 A 25.312 25.312 0 0 1 41.1 51.45 A 46.795 46.795 0 0 1 46.385 48.071 A 52.595 52.595 0 0 1 47.45 47.5 Q 50.9 45.7 54 44.1 A 92.534 92.534 0 0 0 55.691 39.51 A 110.269 110.269 0 0 0 56.65 36.55 Q 57.9 32.5 59.1 27.6 Q 55.3 33.1 51.15 36.75 A 17.752 17.752 0 0 1 48.293 38.827 Q 46.434 39.896 44.564 40.239 A 9.771 9.771 0 0 1 42.8 40.4 A 7.637 7.637 0 0 1 40.334 40.021 A 6.201 6.201 0 0 1 37.25 37.7 Q 35.438 35.191 35.31 31.301 A 18.232 18.232 0 0 1 35.3 30.7 Q 35.3 25.5 37.85 20.8 Q 40.4 16.1 44.5 12.5 Q 48.6 8.9 53.2 6.85 Q 57.556 4.909 61.374 4.806 A 15.802 15.802 0 0 1 61.8 4.8 Q 64.263 4.8 65.536 5.485 A 3.153 3.153 0 0 1 65.95 5.75 A 3.773 3.773 0 0 1 66.636 6.411 A 2.504 2.504 0 0 1 67.2 8 Q 67.2 8.761 66.843 9.236 A 1.548 1.548 0 0 1 66.7 9.4 Q 66.266 9.834 66.058 9.967 A 0.649 0.649 0 0 1 66 10 Q 65.5 9.2 64.5 8.85 A 5.592 5.592 0 0 0 63.605 8.623 Q 63.159 8.546 62.643 8.517 A 11.489 11.489 0 0 0 62 8.5 Q 58.1 8.5 54.45 10.8 A 25.034 25.034 0 0 0 48.176 16.476 A 28.172 28.172 0 0 0 48 16.7 Q 45.2 20.3 43.55 24.15 A 23.238 23.238 0 0 0 42.482 27.171 Q 42.036 28.801 41.932 30.297 A 12.973 12.973 0 0 0 41.9 31.2 A 9.72 9.72 0 0 0 41.988 32.556 Q 42.086 33.246 42.291 33.806 A 3.972 3.972 0 0 0 42.85 34.85 Q 43.771 36.062 45.302 36.099 A 4.021 4.021 0 0 0 45.4 36.1 A 5.688 5.688 0 0 0 47.478 35.666 Q 49.175 34.998 51.178 33.304 A 27.149 27.149 0 0 0 52.35 32.25 A 52.859 52.859 0 0 0 56.797 27.434 A 69.283 69.283 0 0 0 60.2 22.9 A 251.7 251.7 0 0 1 60.47 21.653 Q 60.617 20.984 60.75 20.4 Q 60.988 19.355 61.361 17.768 A 691.699 691.699 0 0 1 61.4 17.6 A 7.107 7.107 0 0 1 61.743 16.49 Q 61.961 15.938 62.284 15.33 A 16.7 16.7 0 0 1 62.85 14.35 Q 64 12.5 66.5 12.5 Q 67 12.5 67.5 12.55 Q 67.968 12.597 68.524 12.775 A 7.074 7.074 0 0 1 68.6 12.8 Q 68.6 14.4 67.65 18.65 Q 66.7 22.9 64.95 28.55 Q 63.2 34.2 60.9 40.2 A 33.657 33.657 0 0 0 65.766 37.294 A 38.916 38.916 0 0 0 67.35 36.1 Q 70.5 33.6 73.1 30.35 Q 75.7 27.1 77.2 23.3 Z M 16.3 8 L 16.3 6.8 Q 16.3 3.731 17.16 2.141 A 3.878 3.878 0 0 1 17.55 1.55 Q 18.33 0.583 19.168 0.219 A 2.569 2.569 0 0 1 20.2 0 A 2.55 2.55 0 0 1 20.65 0.037 Q 21.122 0.122 21.4 0.4 A 1.474 1.474 0 0 1 21.659 0.742 A 1.16 1.16 0 0 1 21.8 1.3 A 2.542 2.542 0 0 1 21.781 1.588 Q 21.725 2.075 21.5 2.9 A 7.414 7.414 0 0 0 21.317 3.809 Q 21.2 4.638 21.2 5.7 A 19.398 19.398 0 0 0 21.567 9.362 A 26.656 26.656 0 0 0 22.5 12.85 Q 23.8 16.7 25.1 20.95 Q 26.4 25.2 26.4 29.8 Q 26.4 31.1 26.25 32.35 A 17.018 17.018 0 0 1 25.957 34.069 A 14.686 14.686 0 0 1 25.8 34.7 Q 29.3 34.1 32.4 31.55 A 16.612 16.612 0 0 0 34.602 29.323 Q 35.572 28.155 36.522 26.675 A 41.041 41.041 0 0 0 38.4 23.4 L 39.3 24.4 A 21.097 21.097 0 0 1 37.443 28.431 A 15.032 15.032 0 0 1 33.6 32.75 Q 29.8 35.6 25.3 36.3 Q 23.7 40.6 20.25 42.6 A 14.954 14.954 0 0 1 13.365 44.579 A 17.956 17.956 0 0 1 12.5 44.6 A 17.447 17.447 0 0 1 9.503 44.359 Q 6.856 43.896 5.05 42.55 A 11.703 11.703 0 0 1 2.156 39.492 A 10.882 10.882 0 0 1 1.15 37.5 A 17.031 17.031 0 0 1 0.055 32.813 A 15.7 15.7 0 0 1 0 31.5 Q 0 28.5 0.8 26.9 A 7.922 7.922 0 0 1 1.508 25.732 Q 1.975 25.099 2.529 24.664 A 4.671 4.671 0 0 1 2.75 24.5 Q 3.862 23.727 4.88 23.327 A 7.542 7.542 0 0 1 4.95 23.3 Q 6 22.9 6.4 22.5 Q 9.4 19.2 11.9 15.6 Q 14.4 12 16.3 8 Z M 19.5 34.6 A 19.451 19.451 0 0 0 19.759 32.909 A 21.948 21.948 0 0 0 19.8 32.5 A 21.766 21.766 0 0 0 19.861 31.619 Q 19.885 31.131 19.895 30.581 A 40.906 40.906 0 0 0 19.9 29.9 Q 19.9 25.2 18.75 20.55 Q 17.6 15.9 16.8 11.8 Q 14.5 15.6 11.95 19.05 Q 9.898 21.826 8.008 23.858 A 36.317 36.317 0 0 1 7.1 24.8 A 16.847 16.847 0 0 0 9.463 28.459 A 22.249 22.249 0 0 0 11.75 30.8 Q 14.9 33.6 19.5 34.6 Z M 40 64.3 A 2.973 2.973 0 0 0 41.221 63.996 Q 42.957 63.205 45.45 60.35 Q 48.307 57.079 51.541 49.935 A 113.16 113.16 0 0 0 52.9 46.8 A 94.634 94.634 0 0 0 47.266 49.851 A 82.001 82.001 0 0 0 45.45 50.95 A 32.225 32.225 0 0 0 42.49 53.021 Q 41.064 54.15 39.948 55.341 A 19.642 19.642 0 0 0 39.8 55.5 A 8.876 8.876 0 0 0 38.306 57.675 A 7.18 7.18 0 0 0 37.6 60.8 A 5.949 5.949 0 0 0 37.683 61.823 Q 37.841 62.727 38.3 63.35 A 2.748 2.748 0 0 0 38.792 63.871 A 1.885 1.885 0 0 0 40 64.3 Z M 15.521 40.447 A 19.399 19.399 0 0 0 15.9 40.3 A 4.024 4.024 0 0 0 17.453 39.151 Q 18.359 38.098 18.981 36.257 A 14.585 14.585 0 0 0 19 36.2 Q 14.8 35.4 11.55 32.9 A 27.871 27.871 0 0 1 9.345 31.025 Q 7.7 29.463 6.7 27.9 Q 4.545 27.998 4.501 31.262 A 10.2 10.2 0 0 0 4.5 31.4 Q 4.5 35 6.65 38.05 A 6.832 6.832 0 0 0 11.581 41.033 A 9.065 9.065 0 0 0 12.7 41.1 Q 13.784 41.1 15.521 40.447 Z" vector-effect="non-scaling-stroke"/></g></svg>