<svg width="107.2" height="80.701" viewBox="0 0 107.2 80.701" xmlns="http://www.w3.org/2000/svg">
<g id="svgGroup"
 style="fill:#d41929"><path d="M 104.4 45.3 L 103.7 48.5 A 233.355 233.355 0 0 0 102.374 52.075 Q 101.734 53.845 101.201 55.424 A 122.653 122.653 0 0 0 100.6 57.25 Q 99.682 60.121 99.085 62.465 A 57.204 57.204 0 0 0 98.75 63.85 A 60.38 60.38 0 0 0 98.319 65.896 Q 98.007 67.525 97.85 68.9 Q 97.6 71.1 97.6 72.9 Q 97.6 74.9 97.75 76.8 Q 97.9 78.7 98 80.7 A 14.639 14.639 0 0 1 96.008 79.647 A 12.524 12.524 0 0 1 95.15 79.05 Q 93.9 78.1 93.25 76.7 A 6.932 6.932 0 0 1 92.679 74.704 A 8.922 8.922 0 0 1 92.6 73.5 Q 92.6 72.4 92.75 71.3 Q 92.9 70.2 93.3 68.9 A 37.131 37.131 0 0 1 86.015 76.537 A 34.737 34.737 0 0 1 85 77.3 Q 80.3 80.7 74.4 80.7 Q 69.2 80.7 64.95 77.75 A 18.411 18.411 0 0 1 60.126 72.759 A 24.364 24.364 0 0 1 58.2 69.25 Q 55.896 64.134 55.716 57.105 A 47.057 47.057 0 0 1 55.7 55.9 A 52.815 52.815 0 0 1 57.604 42.026 A 59.868 59.868 0 0 1 58.1 40.3 Q 60.5 32.4 64.65 25.2 A 70.532 70.532 0 0 1 72.153 14.524 A 64.048 64.048 0 0 1 74.1 12.35 A 51.969 51.969 0 0 1 80.237 6.738 A 41.954 41.954 0 0 1 85.25 3.4 A 27.159 27.159 0 0 1 90.702 1.032 A 20.924 20.924 0 0 1 96.8 0.1 Q 99.665 0.1 101.677 1.01 A 7.657 7.657 0 0 1 102.9 1.7 Q 105.2 3.3 106.2 5.85 Q 107.2 8.4 107.2 11.4 Q 107.2 14.9 106 18.25 Q 104.8 21.6 102.8 23.8 A 7.962 7.962 0 0 1 101.386 25.047 A 5.232 5.232 0 0 1 98.4 26 A 2.848 2.848 0 0 1 97.459 25.833 A 3.996 3.996 0 0 1 96.75 25.5 A 2.835 2.835 0 0 1 96.055 24.91 Q 95.796 24.613 95.567 24.218 A 6.344 6.344 0 0 1 95.3 23.7 A 7.951 7.951 0 0 0 96.195 22.942 Q 97.09 22.076 98.138 20.668 A 33.367 33.367 0 0 0 98.55 20.1 Q 100.4 17.5 101.75 14.3 A 19.242 19.242 0 0 0 102.649 11.689 Q 103.016 10.285 103.084 8.992 A 11.142 11.142 0 0 0 103.1 8.4 Q 103.1 6.1 101.75 4.6 A 3.889 3.889 0 0 0 100.298 3.615 Q 99.113 3.133 97.339 3.102 A 14.055 14.055 0 0 0 97.1 3.1 Q 93.405 3.1 89.451 5.685 A 24.037 24.037 0 0 0 88.15 6.6 Q 83.791 9.882 79.695 15.228 A 63.288 63.288 0 0 0 79.15 15.95 Q 74.8 21.8 71.3 29 Q 67.8 36.2 65.75 43.7 A 59.594 59.594 0 0 0 64.093 51.885 A 47.657 47.657 0 0 0 63.7 57.9 A 35.216 35.216 0 0 0 64.109 63.447 Q 64.947 68.69 67.5 72.15 A 14.017 14.017 0 0 0 70.49 75.187 A 10.923 10.923 0 0 0 77.1 77.3 A 10.848 10.848 0 0 0 82.669 75.73 A 14.656 14.656 0 0 0 84.5 74.45 A 25.12 25.12 0 0 0 88.539 70.254 A 32.249 32.249 0 0 0 90.7 67.05 Q 93.4 62.5 95.05 57.2 A 50.69 50.69 0 0 0 96.625 50.732 A 42.313 42.313 0 0 0 97.1 47 A 97.998 97.998 0 0 0 94.925 46.554 Q 92.83 46.151 91.313 45.974 A 28.245 28.245 0 0 0 91.1 45.95 A 43.631 43.631 0 0 0 88.475 45.742 A 35.044 35.044 0 0 0 86.8 45.7 Q 85.5 45.7 84.05 45.75 A 78.158 78.158 0 0 1 82.695 45.785 Q 81.769 45.8 80.7 45.8 Q 81.174 43.838 82.129 42.676 A 4.571 4.571 0 0 1 83.15 41.75 A 6.778 6.778 0 0 1 85.493 40.798 Q 86.424 40.6 87.5 40.6 A 18.358 18.358 0 0 1 91.283 41.009 A 22.587 22.587 0 0 1 93.35 41.55 Q 96.4 42.5 99.3 43.6 A 75.147 75.147 0 0 0 101.377 44.355 Q 103.025 44.925 104.4 45.3 Z M 20.9 80.7 Q 15.5 80.7 10.7 78.75 Q 5.9 76.8 2.95 72.8 A 14.771 14.771 0 0 1 0.381 66.855 A 20.583 20.583 0 0 1 0 62.8 A 21.421 21.421 0 0 1 0.2 59.775 Q 0.431 58.162 0.927 56.848 A 9.522 9.522 0 0 1 2.05 54.7 Q 4.1 51.8 7.1 50.6 A 17.756 17.756 0 0 1 9.981 49.71 A 13.479 13.479 0 0 1 12.8 49.4 Q 10.1 52.3 8.7 55.8 Q 7.3 59.3 7.3 62.8 Q 7.3 66.5 8.95 69.7 Q 10.6 72.9 14 74.85 Q 16.962 76.549 21.29 76.768 A 25.943 25.943 0 0 0 22.6 76.8 Q 27.1 76.8 31.4 75.15 A 17.853 17.853 0 0 0 36.274 72.38 A 16.15 16.15 0 0 0 38.45 70.25 Q 41.2 67 41.2 62.2 A 14.064 14.064 0 0 0 40.692 58.345 A 11.507 11.507 0 0 0 39 54.8 A 21.997 21.997 0 0 0 34.849 50.424 A 26.106 26.106 0 0 0 33.35 49.3 A 91.009 91.009 0 0 0 26.968 45.253 A 100.205 100.205 0 0 0 26 44.7 A 84.186 84.186 0 0 1 19.083 40.356 A 77.496 77.496 0 0 1 18.65 40.05 A 23.647 23.647 0 0 1 14.417 36.234 A 21.057 21.057 0 0 1 13 34.4 Q 10.8 31.2 10.8 26.7 A 19.8 19.8 0 0 1 11.505 21.572 A 26.216 26.216 0 0 1 12.8 17.9 Q 14.8 13.3 18.55 9.2 Q 22.3 5.1 27.55 2.55 A 25.527 25.527 0 0 1 36.419 0.131 A 31.128 31.128 0 0 1 39.3 0 A 19.092 19.092 0 0 1 42.18 0.201 Q 45.743 0.747 47.436 2.772 A 5.844 5.844 0 0 1 47.5 2.85 Q 49.8 5.7 49.8 10 A 23.867 23.867 0 0 1 49.405 14.223 A 31.691 31.691 0 0 1 48.55 17.75 Q 47.3 21.9 45.5 25.65 A 93.281 93.281 0 0 1 44.178 28.301 Q 43.1 30.375 42.1 32 A 5.668 5.668 0 0 1 41.043 31.662 Q 40.057 31.227 39.55 30.45 A 4.575 4.575 0 0 1 38.87 28.634 A 6.043 6.043 0 0 1 38.8 27.7 Q 38.8 25.933 39.438 23.74 A 22.71 22.71 0 0 1 39.7 22.9 Q 40.6 20.2 41.75 17.3 Q 42.9 14.4 43.8 11.65 Q 44.567 9.309 44.68 7.366 A 11.382 11.382 0 0 0 44.7 6.7 A 5.375 5.375 0 0 0 44.545 5.373 A 3.747 3.747 0 0 0 43.5 3.55 Q 42.478 2.57 40.003 2.425 A 15.465 15.465 0 0 0 39.1 2.4 Q 34.4 2.4 30.4 4.6 Q 26.4 6.8 23.4 10.25 A 29.534 29.534 0 0 0 19.946 15.102 A 25.67 25.67 0 0 0 18.75 17.5 A 23.135 23.135 0 0 0 17.713 20.362 Q 17.1 22.511 17.1 24.4 A 10.62 10.62 0 0 0 17.663 27.912 A 9.353 9.353 0 0 0 19.25 30.75 A 20.465 20.465 0 0 0 22.244 33.721 A 26.41 26.41 0 0 0 24.8 35.55 A 149.473 149.473 0 0 0 30.153 38.775 A 171.401 171.401 0 0 0 32.05 39.85 Q 35.9 42 39.3 44.6 Q 42.7 47.2 44.85 50.75 A 14.447 14.447 0 0 1 46.639 55.478 A 20.234 20.234 0 0 1 47 59.4 Q 47 64.6 44.7 68.55 Q 42.4 72.5 38.55 75.2 Q 34.7 77.9 30.1 79.3 Q 25.5 80.7 20.9 80.7 Z" vector-effect="non-scaling-stroke"/></g></svg>