<svg width="111.001" height="81.1" viewBox="0 0 111.001 81.1" xmlns="http://www.w3.org/2000/svg">
<g id="svgGroup" style="fill:red">
<path d="M 108.7 44.8 L 107.8 48 A 318.24 318.24 0 0 0 106.481 51.75 Q 105.469 54.688 104.75 57 A 118.028 118.028 0 0 0 103.965 59.628 Q 103.67 60.661 103.429 61.592 A 58.677 58.677 0 0 0 103 63.35 Q 102.464 65.721 102.207 67.651 A 33.074 33.074 0 0 0 102.15 68.1 A 34.766 34.766 0 0 0 101.901 72.075 A 32.041 32.041 0 0 0 101.9 72.2 Q 101.9 74.2 102.05 76.3 A 114.499 114.499 0 0 1 102.172 78.253 Q 102.226 79.249 102.271 80.353 A 192.984 192.984 0 0 1 102.3 81.1 Q 100.519 80.758 99.325 80.087 A 5.554 5.554 0 0 1 98.35 79.4 Q 97 78.2 96.45 76.5 Q 95.9 74.8 95.9 73.1 Q 95.9 72.4 95.95 71.7 A 7.908 7.908 0 0 1 96.054 70.881 A 10.083 10.083 0 0 1 96.2 70.2 A 31.749 31.749 0 0 1 88.812 77.279 A 30.11 30.11 0 0 1 88.1 77.75 A 18.755 18.755 0 0 1 78.152 80.696 A 22.536 22.536 0 0 1 77.7 80.7 Q 72.3 80.7 67.75 77.75 A 19.265 19.265 0 0 1 62.165 72.141 A 24.777 24.777 0 0 1 60.5 69.2 A 25.949 25.949 0 0 1 58.434 62.814 Q 57.879 59.938 57.81 56.649 A 45.026 45.026 0 0 1 57.8 55.7 A 52.815 52.815 0 0 1 59.704 41.826 A 59.868 59.868 0 0 1 60.2 40.1 Q 62.6 32.2 66.75 25.05 A 67.717 67.717 0 0 1 75.63 12.962 A 63.142 63.142 0 0 1 76.3 12.25 A 51.672 51.672 0 0 1 82.549 6.653 A 41.748 41.748 0 0 1 87.65 3.35 A 27.271 27.271 0 0 1 93.986 0.814 A 22.649 22.649 0 0 1 99.6 0.1 A 17.364 17.364 0 0 1 102.287 0.295 Q 103.696 0.516 104.846 0.988 A 8.441 8.441 0 0 1 106.3 1.75 Q 108.8 3.4 109.9 6.05 Q 111 8.7 111 11.7 Q 111 15.2 109.75 18.65 Q 108.5 22.1 106.4 24.4 A 8.403 8.403 0 0 1 104.927 25.698 A 5.472 5.472 0 0 1 101.8 26.7 Q 100.7 26.7 99.75 26.05 Q 98.819 25.413 98.032 23.768 A 11.931 11.931 0 0 1 98 23.7 A 8.245 8.245 0 0 0 98.907 22.936 Q 99.971 21.913 101.25 20.15 A 31.464 31.464 0 0 0 104.052 15.456 A 35.583 35.583 0 0 0 104.5 14.5 Q 105.9 11.4 105.9 8.9 Q 105.9 6.8 104.6 5.4 A 3.835 3.835 0 0 0 103.153 4.449 Q 102 4 100.3 4 A 12.901 12.901 0 0 0 95.67 4.904 Q 94.006 5.541 92.296 6.627 A 24.845 24.845 0 0 0 91.15 7.4 A 37.689 37.689 0 0 0 86.09 11.792 A 50.756 50.756 0 0 0 82.1 16.45 Q 77.8 22.1 74.35 29.1 Q 70.9 36.1 68.85 43.35 A 55.872 55.872 0 0 0 67.193 51.269 A 44.761 44.761 0 0 0 66.8 57.1 A 34.231 34.231 0 0 0 67.22 62.642 Q 67.704 65.585 68.745 67.956 A 16.177 16.177 0 0 0 70.7 71.3 A 14.743 14.743 0 0 0 73.653 74.256 A 10.783 10.783 0 0 0 80.2 76.4 A 11.871 11.871 0 0 0 87.317 74.027 A 14.828 14.828 0 0 0 87.75 73.7 Q 91.2 71 93.85 66.65 Q 96.5 62.3 98.15 57.2 A 46.462 46.462 0 0 0 99.803 50.483 A 39.709 39.709 0 0 0 100.2 47.3 A 56.883 56.883 0 0 0 96.88 46.711 A 45.745 45.745 0 0 0 94.75 46.45 Q 92.2 46.2 89.6 46.2 Q 88.1 46.2 86.55 46.25 Q 85 46.3 83.2 46.3 A 12.336 12.336 0 0 1 83.826 44.376 Q 84.254 43.37 84.834 42.619 A 5.782 5.782 0 0 1 85.9 41.55 Q 87.8 40.1 90.8 40.1 Q 93.7 40.1 96.75 41.05 Q 99.8 42 102.85 43.1 A 48.508 48.508 0 0 0 106.565 44.28 A 40.256 40.256 0 0 0 108.7 44.8 Z M 22.2 80.7 Q 16.5 80.7 11.4 78.7 A 19.68 19.68 0 0 1 5.427 75.087 A 18.33 18.33 0 0 1 3.15 72.65 A 14.694 14.694 0 0 1 0.323 66.198 A 20.273 20.273 0 0 1 0 62.5 A 20.183 20.183 0 0 1 0.243 59.27 Q 0.522 57.552 1.122 56.163 A 9.605 9.605 0 0 1 2.25 54.2 Q 4.5 51.2 7.9 50 A 21.344 21.344 0 0 1 11.867 48.998 A 17.899 17.899 0 0 1 14.5 48.8 Q 11.5 52 9.9 55.6 Q 8.3 59.2 8.3 62.5 Q 8.3 66 10.05 69.05 A 12.567 12.567 0 0 0 13.822 73.114 A 15.763 15.763 0 0 0 15.25 74 Q 18.317 75.689 22.767 75.877 A 26.915 26.915 0 0 0 23.9 75.9 Q 28.4 75.9 32.65 74.3 Q 36.9 72.7 39.65 69.65 Q 42.4 66.6 42.4 62 Q 42.4 57.8 40.1 54.8 A 22.158 22.158 0 0 0 36.326 50.985 A 27.261 27.261 0 0 0 34.2 49.45 A 97.17 97.17 0 0 0 27.556 45.491 A 107.134 107.134 0 0 0 26.55 44.95 Q 22.5 42.8 18.9 40.3 Q 15.3 37.8 13 34.55 A 12.422 12.422 0 0 1 10.872 29.115 A 16.414 16.414 0 0 1 10.7 26.7 A 18.725 18.725 0 0 1 11.279 22.189 Q 11.757 20.259 12.632 18.222 A 30.87 30.87 0 0 1 12.75 17.95 A 31.373 31.373 0 0 1 17.19 10.774 A 36.609 36.609 0 0 1 18.55 9.2 A 28.967 28.967 0 0 1 26.906 2.917 A 33.196 33.196 0 0 1 27.65 2.55 A 26.378 26.378 0 0 1 36.674 0.131 A 32.122 32.122 0 0 1 39.6 0 A 23.57 23.57 0 0 1 42.781 0.199 Q 46.37 0.69 48.288 2.391 A 6.323 6.323 0 0 1 48.8 2.9 A 10.048 10.048 0 0 1 51.248 8.214 A 13.774 13.774 0 0 1 51.4 10.3 A 24.983 24.983 0 0 1 50.971 14.808 A 32.387 32.387 0 0 1 50.15 18.2 Q 48.9 22.4 47.05 26.15 A 90.051 90.051 0 0 1 45.46 29.231 Q 44.707 30.619 43.981 31.82 A 50.155 50.155 0 0 1 43.5 32.6 A 7.515 7.515 0 0 1 42.192 32.151 Q 41.141 31.669 40.5 30.9 A 4.208 4.208 0 0 1 39.621 29.037 A 6.016 6.016 0 0 1 39.5 27.8 A 11.807 11.807 0 0 1 39.685 25.784 Q 39.852 24.821 40.171 23.765 A 21.855 21.855 0 0 1 40.4 23.05 Q 41.3 20.4 42.4 17.55 Q 43.5 14.7 44.4 12.05 Q 45.3 9.4 45.3 7.3 A 5.264 5.264 0 0 0 45.17 6.095 Q 44.922 5.039 44.2 4.35 Q 43.1 3.3 39.8 3.3 Q 35.1 3.3 31.1 5.45 Q 27.1 7.6 24.15 10.9 A 29.448 29.448 0 0 0 20.904 15.252 A 25.039 25.039 0 0 0 19.55 17.8 A 20.854 20.854 0 0 0 18.497 20.574 Q 17.9 22.596 17.9 24.4 Q 17.9 28 20.15 30.6 A 20.157 20.157 0 0 0 23.085 33.349 A 27.086 27.086 0 0 0 26 35.3 Q 29.6 37.4 33.55 39.55 Q 37.5 41.7 41.1 44.3 A 22.384 22.384 0 0 1 46.591 49.901 A 21.389 21.389 0 0 1 46.95 50.45 Q 49.198 53.997 49.2 59.192 A 22.098 22.098 0 0 1 49.2 59.2 A 19.58 19.58 0 0 1 48.537 64.387 A 16.463 16.463 0 0 1 46.85 68.4 Q 44.5 72.4 40.55 75.1 Q 36.6 77.8 31.85 79.25 Q 27.1 80.7 22.2 80.7 Z" vector-effect="non-scaling-stroke"/></g></svg>