<svg width="78.901" height="63.8" viewBox="0 0 78.901 63.8" xmlns="http://www.w3.org/2000/svg">
<g id="svgGroup" style="fill:#d41929">
<path d="M 55.301 0 L 78.901 0 L 78.901 11.2 L 71.701 11.2 L 71.701 11.7 A 9.132 9.132 0 0 1 74.885 18.376 A 12.172 12.172 0 0 1 74.901 19 A 20.206 20.206 0 0 1 73.906 25.621 Q 70.789 34.624 57.893 34.985 A 39.108 39.108 0 0 1 56.801 35 L 52.001 35 A 2.846 2.846 0 0 0 51.31 35.076 Q 50.415 35.301 50.242 36.188 A 2.42 2.42 0 0 0 50.201 36.65 A 2.298 2.298 0 0 0 50.288 37.312 Q 50.508 38.042 51.282 38.232 A 2.592 2.592 0 0 0 51.901 38.3 L 65.501 38.3 A 19.24 19.24 0 0 1 69.841 38.745 Q 75.753 40.119 76.783 45.738 A 14.21 14.21 0 0 1 77.001 48.3 Q 77.001 56.5 71.501 60.15 A 19.509 19.509 0 0 1 66.113 62.58 Q 61.909 63.8 56.301 63.8 Q 47.765 63.8 42.907 62.213 A 17.459 17.459 0 0 1 41.651 61.75 A 8.511 8.511 0 0 1 38.858 59.947 Q 36.701 57.797 36.701 54.1 Q 36.701 51 40.601 48.9 L 40.601 48.5 A 10.932 10.932 0 0 1 37.964 46.524 A 8.085 8.085 0 0 1 35.701 40.7 Q 35.701 35.26 42.029 32.204 A 22.346 22.346 0 0 1 43.401 31.6 A 18.976 18.976 0 0 1 40.18 28.693 A 15.349 15.349 0 0 1 38.051 25.55 Q 36.724 22.935 36.403 19.027 A 32.129 32.129 0 0 1 36.301 16.4 A 19.389 19.389 0 0 1 36.909 11.4 A 13.552 13.552 0 0 1 41.451 4.25 A 17.661 17.661 0 0 1 48.256 0.843 Q 50.832 0.158 53.873 0.03 A 33.853 33.853 0 0 1 55.301 0 Z M 32.501 2 L 30.801 15.9 Q 22.001 13.916 18.188 13.643 A 15.417 15.417 0 0 0 17.101 13.6 Q 15.001 13.6 15.001 15.3 A 1.209 1.209 0 0 0 15.298 16.065 Q 15.658 16.512 16.454 16.922 A 9.112 9.112 0 0 0 17.301 17.3 A 56.295 56.295 0 0 1 22.125 19.289 Q 24.378 20.352 26.184 21.504 A 23.134 23.134 0 0 1 29.351 23.9 A 11.687 11.687 0 0 1 32.619 29.211 Q 33.401 31.748 33.401 35 Q 33.401 40.174 31.543 43.613 A 11.536 11.536 0 0 1 29.601 46.25 Q 26.541 49.35 20.856 49.954 A 27.53 27.53 0 0 1 17.951 50.1 Q 10.101 50.1 2.301 48.1 L 3.401 34.6 Q 11.589 36.811 15.05 37.211 A 11.599 11.599 0 0 0 16.351 37.3 Q 18.067 37.3 18.785 36.826 A 1.057 1.057 0 0 0 19.301 35.9 Q 19.301 34.533 17.202 33.738 A 8.102 8.102 0 0 0 17.101 33.7 A 68.714 68.714 0 0 1 12.123 31.586 Q 6.951 29.127 4.101 26.45 A 12.417 12.417 0 0 1 0.626 20.495 Q 0.081 18.48 0.011 16.072 A 24.751 24.751 0 0 1 0.001 15.35 A 18.974 18.974 0 0 1 0.551 10.648 A 13.08 13.08 0 0 1 4.451 4.05 A 14.827 14.827 0 0 1 10.703 0.724 Q 12.981 0.113 15.685 0.018 A 28.797 28.797 0 0 1 16.701 0 A 64.784 64.784 0 0 1 32.001 1.877 A 71.611 71.611 0 0 1 32.501 2 Z M 51.301 53.5 L 61.601 53.5 Q 63.144 53.5 63.364 52.324 A 2.306 2.306 0 0 0 63.401 51.9 L 63.401 51.5 Q 63.401 50.108 61.851 50.008 A 3.874 3.874 0 0 0 61.601 50 L 51.301 50 A 2.303 2.303 0 0 0 50.668 50.079 Q 49.958 50.283 49.769 51.007 A 2.357 2.357 0 0 0 49.701 51.6 L 49.701 52 A 2.021 2.021 0 0 0 49.783 52.603 Q 49.989 53.262 50.711 53.437 A 2.511 2.511 0 0 0 51.301 53.5 Z M 59.701 19.2 A 21.79 21.79 0 0 0 59.648 17.623 Q 59.536 16.086 59.187 15.101 A 4.4 4.4 0 0 0 58.951 14.55 A 2.555 2.555 0 0 0 57.096 13.185 A 4.422 4.422 0 0 0 56.201 13.1 A 4.274 4.274 0 0 0 55.175 13.215 A 2.53 2.53 0 0 0 53.451 14.55 Q 52.783 15.84 52.71 18.357 A 22.01 22.01 0 0 0 52.701 19 A 15.452 15.452 0 0 0 52.827 21.073 Q 53.376 25.1 56.301 25.1 A 2.804 2.804 0 0 0 58.978 23.386 Q 59.602 22.12 59.687 19.92 A 18.608 18.608 0 0 0 59.701 19.2 Z" vector-effect="non-scaling-stroke"/></g></svg>