<svg width="89.001" height="64.13" viewBox="0 0 89.001 64.13" xmlns="http://www.w3.org/2000/svg">
<g id="svgGroup"
 style="fill:#d41929">
<path d="M 85.601 3.2 L 82.901 19.5 A 124.836 124.836 0 0 0 78.423 18.232 Q 74.106 17.102 71.178 16.755 A 19.964 19.964 0 0 0 68.851 16.6 A 7.789 7.789 0 0 0 66.399 16.963 Q 63.898 17.789 62.751 20.5 A 15.412 15.412 0 0 0 61.953 23.054 Q 61.309 25.868 61.152 30.025 A 74.85 74.85 0 0 0 61.101 32.85 Q 61.101 39.524 62.068 43.329 A 14.371 14.371 0 0 0 62.651 45.15 Q 64.201 49 69.001 49 A 8.818 8.818 0 0 0 69.8 48.957 Q 70.978 48.847 73.049 48.462 A 100.734 100.734 0 0 0 74.401 48.2 L 74.401 40.6 L 69.901 40.6 L 69.901 28.8 L 89.001 28.8 L 89.001 63.1 L 77.201 63.1 L 75.601 59.9 L 75.201 59.9 A 85.525 85.525 0 0 1 74.395 60.557 Q 73.519 61.26 72.874 61.733 A 21.213 21.213 0 0 1 72.501 62 A 9.427 9.427 0 0 1 69.611 63.436 Q 68.306 63.841 66.731 63.999 A 21.341 21.341 0 0 1 64.601 64.1 Q 44.287 64.1 43.717 34.248 A 91.601 91.601 0 0 1 43.701 32.5 Q 43.701 22.537 45.888 15.536 A 28.37 28.37 0 0 1 49.201 8.35 A 17.607 17.607 0 0 1 59.629 0.993 Q 63.219 0 67.701 0 A 56.791 56.791 0 0 1 75.96 0.57 Q 81.265 1.35 85.601 3.2 Z M 38.001 1.8 L 36.001 17.8 Q 27.322 15.784 23.408 15.535 A 15.987 15.987 0 0 0 22.401 15.5 A 8.536 8.536 0 0 0 20.685 15.657 Q 18.062 16.198 17.744 18.603 A 5.333 5.333 0 0 0 17.701 19.3 A 2.254 2.254 0 0 0 18.087 20.526 Q 18.632 21.38 19.951 22.2 Q 22.201 23.6 25.401 25.15 A 51.455 51.455 0 0 1 30.601 28.065 A 58.254 58.254 0 0 1 31.801 28.85 A 15.956 15.956 0 0 1 35.409 32.235 A 21.193 21.193 0 0 1 37.251 35 Q 39.501 39 39.501 44.2 A 28.499 28.499 0 0 1 38.952 49.972 Q 37.827 55.407 34.401 58.9 A 16.598 16.598 0 0 1 26.637 63.299 Q 23.998 64 20.858 64.088 A 32.522 32.522 0 0 1 19.951 64.1 Q 10.601 64.1 1.701 61.2 L 2.801 46.3 A 167.991 167.991 0 0 0 7.459 47.583 Q 13.976 49.269 17.214 49.391 A 12.914 12.914 0 0 0 17.701 49.4 Q 21.313 49.4 21.819 46.663 A 5.307 5.307 0 0 0 21.901 45.7 A 3.361 3.361 0 0 0 21.275 43.78 Q 20.925 43.265 20.378 42.777 A 8.389 8.389 0 0 0 19.651 42.2 Q 17.401 40.6 14.201 39 A 66.168 66.168 0 0 1 8.968 36.07 A 74.519 74.519 0 0 1 7.751 35.3 A 15.397 15.397 0 0 1 4.079 31.933 A 20.386 20.386 0 0 1 2.251 29.2 A 17.194 17.194 0 0 1 0.324 23.653 A 23.192 23.192 0 0 1 0.001 19.7 A 24.793 24.793 0 0 1 0.732 13.518 A 17.905 17.905 0 0 1 5.201 5.4 A 17.181 17.181 0 0 1 14.386 0.483 A 25.292 25.292 0 0 1 19.451 0 Q 28.501 0 38.001 1.8 Z" vector-effect="non-scaling-stroke"/></g></svg>